<svg xmlns="http://www.w3.org/2000/svg" width="20" height="20" fill="none"><path fill="#9D097C" fill-rule="evenodd" d="M2.917 10c0-1.472 0-2.208.14-2.816a5.5 5.5 0 0 1 4.127-4.128c.608-.14 1.344-.14 2.816-.14 1.472 0 2.208 0 2.816.14a5.5 5.5 0 0 1 4.127 4.128c.14.608.14 1.344.14 2.816 0 1.472 0 2.208-.14 2.816a5.5 5.5 0 0 1-4.127 4.127c-.608.14-1.344.14-2.816.14-1.472 0-2.208 0-2.816-.14a5.5 5.5 0 0 1-4.127-4.127c-.14-.608-.14-1.344-.14-2.816ZM10 6.25a3.75 3.75 0 1 0 0 7.5 3.75 3.75 0 0 0 0-7.5Zm0 6.094A2.347 2.347 0 0 1 7.656 10 2.346 2.346 0 0 1 10 7.656 2.346 2.346 0 0 1 12.344 10 2.347 2.347 0 0 1 10 12.344Zm4.531-6.375a.5.5 0 1 1-1 0 .5.5 0 0 1 1 0Z" clip-rule="evenodd"/></svg>